PathFileType	4	(X/Y/Z)	C:\Users\°ÂÌØÂü\Desktop\20210112\bx_n_0_1801-Unnamed.trc
DataRate	CameraRate	NumFrames	NumMarkers	Units	OrigDataRate	OrigDataStartFrame	OrigNumFrames
50.00	50.00	       8	0	mm	50.00	348	       397
Frame#	Time	
		

348	6.940	-649.29303	-76.19917	1543.91089	-566.47620	237.31393	1064.77295	-653.99847	285.08923	875.88220	-680.06628	73.42747	575.36279	-547.24371	99.84499	1357.51221	-669.35632	267.47870	745.37360	-711.99493	250.76172	642.90460	-563.91785	218.25116	789.89355	-656.81647	14.30005	519.70551	-708.49487	243.58727	577.12469	-657.84021	200.38159	535.76111	-750.59351	255.10432	503.77502	-714.96259	71.96692	216.60228	-650.34070	-68.24905	161.29536	-711.12292	149.22687	216.22760	-763.87158	224.43697	206.99205	-608.45789	-75.34413	158.75467	-882.52362	296.04932	144.68103	-769.16101	97.34880	1055.61597	-596.83118	24.94038	167.02751	-552.18823	-32.37421	165.74310	-587.94519	210.75858	173.34015	-654.07172	292.50751	156.04066	-617.12579	299.16241	158.25098	-552.81732	247.21863	166.27196	-528.13885	304.07614	146.58961	-687.71069	101.87906	1850.70313	-661.68707	283.57605	1541.84509	-517.61737	-72.88786	143.39975	-789.73029	44.04267	177.47568	-793.53271	176.35416	186.35583	-567.93445	-11.95796	800.86963	-751.41046	-43.82204	490.39993	-756.66833	-16.01091	208.20155	-875.93073	-78.79627	141.25227	-672.20416	53.81440	158.18732	-672.07233	140.23543	579.62805	-674.15411	166.78322	156.44940	-643.21558	-75.09336	874.53363	-568.47180	-12.95379	1058.84937				-705.28387	-32.86412	569.53821	-669.03375	-63.08829	760.16034	-695.42432	-36.09169	616.11652	
349	6.960	-649.63715	-76.27497	1543.95386	-565.66443	237.34410	1064.66370	-653.69452	284.84537	875.82452	-680.36188	73.67067	575.30963	-547.11755	99.59213	1357.82605	-669.31152	267.21204	745.14990	-712.47412	250.74557	642.63708	-563.94556	218.24805	789.74725	-656.88531	14.57780	519.41650	-708.68018	243.56851	577.22955	-657.98419	200.53806	535.79486	-750.74207	255.26111	504.04861	-715.08972	71.90754	216.46509	-650.36273	-68.19986	161.47211	-711.47369	149.39963	215.87930	-763.75275	224.44736	207.06375	-608.43842	-75.30955	158.74641	-882.48163	296.05740	144.66068	-768.54364	97.43661	1055.95276	-596.78137	24.88729	166.94975	-552.04626	-32.21832	165.74152	-587.98737	210.86676	173.27927	-654.15790	292.58191	156.15585	-617.02985	299.22568	158.19981	-552.55792	247.21121	166.29414	-528.20111	303.92340	146.60805	-688.66144	101.91545	1850.51599	-662.19342	283.63373	1541.67566	-517.61444	-72.77810	143.24648	-789.73029	44.04267	177.47568	-793.53271	176.35416	186.35583	-567.90637	-11.90923	800.80157	-751.54193	-43.92937	490.42822	-756.63477	-16.01391	207.95723	-875.95135	-78.62993	141.22516	-672.10364	53.66957	157.99826	-672.34406	140.14268	579.59058	-674.25934	166.73737	156.44026	-643.09357	-75.30975	874.63342	-567.90436	-13.08602	1058.74927				-705.23505	-33.03175	569.51031	-668.61877	-63.15430	759.83594	-695.58350	-36.12913	615.95270	
350	6.980	-650.04700	-76.64216	1544.03369	-565.31989	237.30379	1064.45471	-653.67804	284.85648	876.09064	-680.43817	73.11885	575.48419	-547.07733	99.40314	1357.83325	-669.46368	267.51230	745.45886	-713.16266	251.23184	642.86212	-563.98309	218.35922	789.50018	-657.17181	14.45534	519.37201	-709.34784	243.59242	577.16071	-658.11688	200.37794	536.05396	-751.14532	255.12741	504.11746	-715.03253	71.85862	216.56752	-650.36371	-68.03619	161.49783	-711.17133	149.23691	216.15532	-763.65228	224.51501	206.94513	-608.43842	-75.30955	158.74641	-882.42505	296.15695	144.76091	-768.21326	97.18209	1056.18408	-596.87354	24.81213	166.92761	-552.05988	-32.29692	165.82913	-587.88129	210.68999	173.25911	-654.15125	292.46576	156.37984	-617.02692	299.25818	158.12846	-552.54840	247.34773	166.12709	-528.29248	303.97745	146.42059	-689.64063	101.83213	1850.64771	-662.60394	283.60864	1541.61462	-517.65558	-72.78529	143.28200	-789.73029	44.04267	177.47568	-793.53271	176.35416	186.35583	-567.79547	-11.97948	800.59344	-751.64703	-44.32418	490.64935	-756.61578	-16.07833	208.09579	-875.94965	-78.65163	141.20186	-671.87512	53.73211	158.05646	-672.55493	140.35339	579.27313	-674.24225	166.81357	156.50568	-642.88892	-75.30876	874.38428	-567.39264	-13.46186	1058.64832				-705.37030	-33.24022	569.28809	-668.63226	-63.18413	759.77856	-695.59247	-36.16111	616.04443	
351	7.000	-650.83533	-76.73983	1543.96448	-565.06860	237.10626	1064.44189	-653.50055	284.43439	875.85699	-680.51007	73.18469	575.38409	-547.00891	99.29134	1357.88403	-669.42419	267.21289	745.26935	-713.74048	251.07123	642.25848	-564.12549	218.31516	789.20007	-657.17181	14.45534	519.37201	-709.34784	243.59242	577.16071	-658.45697	200.30522	535.97174	-751.30194	255.05023	504.15433	-715.03253	71.85862	216.56752	-650.38080	-68.07256	161.45370	-711.34082	149.08804	216.31921	-763.75275	224.44736	207.06375	-608.53473	-75.39066	158.89117	-882.50659	296.28424	144.83293	-767.75696	97.30756	1056.16211	-596.85443	24.82609	166.98741	-552.03497	-32.20975	165.88635	-587.91675	210.66161	173.41057	-654.19769	292.54074	156.27376	-617.12579	299.16241	158.25098	-552.49445	247.30531	166.27812	-528.24670	304.10913	146.51436	-690.37604	101.84270	1850.68933	-663.06848	283.59607	1541.41113	-517.61737	-72.88786	143.39975	-789.86578	43.92123	177.47218	-793.53271	176.35416	186.35583	-567.96930	-12.11968	800.52429	-751.68152	-44.38070	490.54926	-756.51178	-16.07143	207.90625	-875.93073	-78.79627	141.25227	-671.92499	53.68413	157.79492	-672.73004	140.56282	579.15253	-674.03607	166.73064	156.58130	-642.88892	-75.30876	874.38428	-567.05151	-13.81257	1058.48022				-705.29224	-33.46848	569.36572	-668.51434	-63.71237	760.03058	-696.11298	-36.48584	616.05994	
352	7.020	-651.03931	-76.88953	1543.92261	-564.71387	236.89517	1064.27087	-653.34381	284.15112	875.73706	-680.73938	73.05217	575.25940	-547.05914	99.15257	1358.06775	-669.41882	267.24567	745.23523	-714.63605	251.79030	642.65094	-564.09259	217.96596	789.07343	-657.24628	14.42422	519.43719	-709.80139	243.98410	577.76880	-658.57263	200.40553	536.08667	-751.55609	255.14380	504.28589	-715.17474	71.78631	216.41722	-650.34723	-68.05434	161.40906	-711.52631	149.01569	216.27661	-763.71790	224.46564	207.06569	-608.60919	-75.39560	158.94530	-882.44165	296.28186	144.84575	-767.66589	97.24100	1056.34680	-596.97894	24.93288	166.80525	-552.10834	-32.11860	165.90381	-587.91699	210.57794	173.51172	-654.07172	292.50751	156.04066	-617.19647	299.20911	158.33005	-552.71741	247.39238	166.11185	-528.30536	304.04300	146.37025	-690.93933	101.66798	1850.63586	-663.20520	283.52679	1541.21265	-517.58478	-72.95633	143.48370	-790.25055	43.96204	177.59856	-793.52472	176.27719	186.44653	-567.98230	-12.21699	800.40753	-751.75958	-44.63593	490.60306	-756.79657	-16.19430	208.04575	-875.99792	-78.69180	141.55168	-672.14264	53.60195	157.54056	-672.73004	140.56282	579.15253	-674.12927	166.68457	156.58846	-642.68323	-75.48679	874.18042	-566.71417	-13.88820	1058.19092				-705.80676	-33.42598	569.06537	-668.55096	-63.95528	759.91614	-696.24835	-36.67641	616.04810	
353	7.040	-651.26312	-76.96934	1543.98450	-564.39514	236.49667	1064.29004	-653.30414	283.89523	875.56061	-681.04364	72.82757	575.67102	-547.12305	98.84388	1358.02686	-669.57300	266.65366	745.18713	-714.75269	251.63351	642.81812	-563.92224	217.46841	789.10217	-657.18634	14.16444	519.37006	-709.73560	243.78217	577.57214	-658.67303	200.34932	536.04456	-751.65588	255.13383	504.11740	-715.03253	71.85862	216.56752	-650.34723	-68.05434	161.40906	-711.34082	149.08804	216.31921	-763.63599	224.45699	206.61873	-608.54199	-75.40830	158.76611	-882.38171	296.15680	144.80455	-767.09100	96.69572	1056.13403	-596.96405	24.91134	166.95274	-552.17249	-32.20090	165.83669	-587.96039	210.77098	173.35068	-654.19769	292.54074	156.27376	-617.12579	299.16241	158.25098	-552.80664	247.18463	166.22284	-528.30585	304.11691	146.33821	-691.42474	101.54813	1850.46289	-663.55469	283.19366	1540.88452	-517.61737	-72.88786	143.39975	-790.04626	43.86760	177.48015	-793.61285	176.33818	186.45522	-568.06073	-12.40545	799.99634	-751.82489	-44.69426	490.49719	-756.61945	-16.26062	207.85207	-875.95648	-78.79716	141.44162	-671.99176	53.41895	157.51227	-672.84442	140.25507	579.21655	-673.96277	166.34932	156.98524	-642.61584	-75.41949	874.03558	-566.66925	-14.17199	1057.83337				-705.88757	-33.67104	569.05750	-668.59406	-64.11167	759.74487	-696.23370	-36.73757	615.90967	
354	7.060	-651.64758	-77.03699	1544.03784	-564.30621	236.19495	1064.31262	-653.34790	283.56079	875.27014	-681.51721	72.20773	575.34265	-547.36835	98.52213	1358.05774	-669.27252	266.91010	744.96332	-714.17639	251.30382	642.74341	-563.93311	217.29764	788.99823	-657.18634	14.16444	519.37006	-709.87567	244.19958	577.87061	-658.87970	200.10458	536.08057	-751.74164	254.97992	504.12299	-715.17474	71.78631	216.41722	-650.38080	-68.07256	161.45370	-711.34082	149.08804	216.31921	-763.84009	224.47752	207.07101	-608.50763	-75.35057	158.76768	-882.48492	296.28201	144.80209	-767.28937	96.48238	1056.24072	-596.84753	24.78670	166.82533	-552.06976	-32.17057	165.94267	-588.00769	210.79538	173.31271	-653.96173	292.47284	156.01382	-617.14581	299.18338	158.41188	-552.73572	247.22981	166.21274	-528.26074	304.00513	146.39989	-691.83075	101.43874	1850.45825	-663.92847	282.98383	1540.79626	-517.61737	-72.88786	143.39975	-790.12604	43.77863	177.55821	-793.62085	176.41513	186.36450	-568.16827	-12.62521	799.93457	-751.89160	-45.06224	490.36130	-756.67450	-16.37181	207.80334	-875.95648	-78.79716	141.44162	-672.13806	53.83834	157.80420	-673.15765	140.17447	579.26385	-674.08405	166.81587	156.21571	-642.57642	-75.56088	873.96246	-566.70648	-14.50742	1057.71216				-705.99640	-33.82293	568.85791	-668.46552	-64.63053	759.69714	-696.39594	-37.05452	615.89697	
355	7.080	-651.62933	-77.17453	1543.87158	-564.06830	236.05795	1064.14624	-653.14661	282.97421	875.34729	-681.67352	72.01284	575.31708	-547.54016	98.28767	1357.79517	-669.39398	266.72766	744.90393	-713.46008	251.15419	643.02161	-563.94879	216.91762	789.06891	-657.26892	14.09394	519.42340	-709.63458	243.70552	577.42896	-658.99524	199.84384	535.90338	-751.59357	255.03700	503.82089	-715.17474	71.78631	216.41722	-650.34723	-68.05434	161.40906	-711.52631	149.01569	216.27661	-764.01807	224.41162	206.97246	-608.41504	-75.35349	158.64650	-882.46735	296.11185	144.67628	-767.43787	96.35094	1056.20605	-596.80756	24.95954	166.83344	-552.11853	-32.19612	165.88405	-587.95050	210.67650	173.14073	-653.92438	292.39352	156.12801	-617.03662	299.16437	158.21675	-552.80347	247.28664	166.09184	-528.11072	304.29047	146.63930	-692.40607	101.23035	1850.39697	-663.98431	282.81778	1540.66602	-517.58478	-72.95633	143.48370	-790.57404	43.54015	177.68492	-793.62085	176.41513	186.36450	-568.12610	-12.72172	799.81018	-751.80170	-45.22899	490.29498	-756.67450	-16.37181	207.80334	-876.03687	-78.90970	141.42259	-672.15924	53.47892	157.77263	-673.18494	139.83725	579.10052	-674.26312	166.89410	156.36205	-642.61035	-75.96942	873.83264	-566.90240	-14.78191	1057.65881				-705.79718	-34.28859	569.16742	-668.36694	-64.83437	759.55786	-696.19006	-37.04903	615.89435	
